# xmcd
#
# Track frame offsets:
#	150
#	7940
#	19486
#	28753
#	39510
#	51483
#	60325
#	69322
#	79841
#	91198
#	100539
#	112807
#	123556
#	132974
#	144040
#	154853
#	165807
#	178037
#	188433
#	198414
#	211199
#	223250
#	232869
#	243164
#	253530
#	263704
#	273750
#	285798
#	297122
#	307350
#	318619
#	331420
#
# Disc length: 4549 seconds
#
# Revision: 1
# Processed by: cddbd v1.5.2PL0 Copyright (c) Steve Scherf et al.
# Submitted via: EZCDAudioConverter 7.1.1.1
#
DISCID=b011c320
DTITLE=Various Artist - Rockin' Hillbilly - Vol. 02
DYEAR=1900
DGENRE=Hillbilly
TTITLE0=Jimmy Thompson - Big Deal
TTITLE1=Bill Wimberley - Springfield Guitar Social
TTITLE2=Slim Willet - Come Sundown
TTITLE3=Johnny Ragsdale - Engineer's Song
TTITLE4=Billy Briggs - Sissy Song
TTITLE5=Merle Kilgore - Seeing Double, Feeling Single
TTITLE6=Bobby Grove - I Saw Her First
TTITLE7=Gene Davis - Ride
TTITLE8=Ray Anderson - Living Too Fast Admiral
TTITLE9=Billy Barton - Pardon Me Old Buddy
TTITLE10=Fred Crawford - I Just Need Some Lovin'
TTITLE11=Jimmie Osborne - You Can't Sometimes
TTITLE12=Sonny Burns - Another Woman Looking For A Man
TTITLE13=Earl Wright - Married Man Blues
TTITLE14=Jack Ford - That's All You Gotta Do
TTITLE15=Jack Hammons - Mr. Cupid
TTITLE16=Peck Touchton - You've Changed Your Tune
TTITLE17=Tennessee Drifters - Boogie Woogie Baby
TTITLE18=Bobby Grove - Whistle Of The Gravy Train
TTITLE19=Ted West - Parkin' Worries
TTITLE20=Weldon Rogers - Woman Drivers
TTITLE21=Les Tucker - Wrong Kinda Lovin'
TTITLE22=Johnny Tyler - Devil's Hotrod
TTITLE23=James O'Gwynn - Ready For Freddy
TTITLE24=Rusty McDonald - Name Adress And Phone Number
TTITLE25=Jimmy Smith - First Choice
TTITLE26=Tommy Scott - Tennessee
TTITLE27=Jimmy Ballard - The Creek's Gone Muddy
TTITLE28=Lou Millet - My In Laws Made An Outlaw Out Of Me
TTITLE29=Bill Tutt - Talking Blues #2
TTITLE30=Turner Brothers - Boog Boog Boogie
TTITLE31=Mac Wiseman - Wildfire
EXTD=
EXTT0=
EXTT1=
EXTT2=
EXTT3=
EXTT4=
EXTT5=
EXTT6=
EXTT7=
EXTT8=
EXTT9=
EXTT10=
EXTT11=
EXTT12=
EXTT13=
EXTT14=
EXTT15=
EXTT16=
EXTT17=
EXTT18=
EXTT19=
EXTT20=
EXTT21=
EXTT22=
EXTT23=
EXTT24=
EXTT25=
EXTT26=
EXTT27=
EXTT28=
EXTT29=
EXTT30=
EXTT31=
PLAYORDER=
